<svg xmlns="http://www.w3.org/2000/svg" width="44" height="44" viewBox="0 0 44 44">
  <metadata><?xpacket begin="﻿" id="W5M0MpCehiHzreSzNTczkc9d"?>
<x:xmpmeta xmlns:x="adobe:ns:meta/" x:xmptk="Adobe XMP Core 5.6-c142 79.160924, 2017/07/13-01:06:39        ">
   <rdf:RDF xmlns:rdf="http://www.w3.org/1999/02/22-rdf-syntax-ns#">
      <rdf:Description rdf:about=""/>
   </rdf:RDF>
</x:xmpmeta>
                                                                                                    
                                                                                                    
                                                                                                    
                                                                                                    
                                                                                                    
                                                                                                    
                                                                                                    
                                                                                                    
                                                                                                    
                                                                                                    
                                                                                                    
                                                                                                    
                                                                                                    
                                                                                                    
                                                                                                    
                                                                                                    
                                                                                                    
                                                                                                    
                                                                                                    
                                                                                                    
                           
<?xpacket end="w"?></metadata>
<defs>
    <style>
      .cls-1 {
        fill: #fff;
        fill-rule: evenodd;
      }
    </style>
  </defs>
  <path id="add" class="cls-1" d="M904,751a22,22,0,1,1-22,22A22,22,0,0,1,904,751Zm-0.029,3.941a18.032,18.032,0,1,1-18.032,18.032A18.032,18.032,0,0,1,903.968,754.936ZM880.8,787.523l10.135-10.135,6.243,6.243-10.136,10.135Zm21.234-4.539L901.975,762.8a2,2,0,0,1,4,0l-0.007,20.185a2,2,0,0,1-2,2A1.947,1.947,0,0,1,902.03,782.984Zm-17.417.025-0.019-.186a2,2,0,1,1,4,0l0.019,0.186A2,2,0,0,1,884.613,783.009Zm5.312,6.062-0.018-.185a2,2,0,1,1,4,0l0.018,0.185A2,2,0,1,1,889.925,789.071Zm24.153-14.2-20.185.055a2,2,0,0,1,0-4l20.185,0.007a2,2,0,0,1,2,2A1.948,1.948,0,0,1,914.078,774.876Z" transform="translate(-882 -751)"/>
</svg>
