<svg xmlns="http://www.w3.org/2000/svg" width="44" height="44" viewBox="0 0 44 44">
  <metadata><?xpacket begin="﻿" id="W5M0MpCehiHzreSzNTczkc9d"?>
<x:xmpmeta xmlns:x="adobe:ns:meta/" x:xmptk="Adobe XMP Core 5.6-c142 79.160924, 2017/07/13-01:06:39        ">
   <rdf:RDF xmlns:rdf="http://www.w3.org/1999/02/22-rdf-syntax-ns#">
      <rdf:Description rdf:about=""/>
   </rdf:RDF>
</x:xmpmeta>
                                                                                                    
                                                                                                    
                                                                                                    
                                                                                                    
                                                                                                    
                                                                                                    
                                                                                                    
                                                                                                    
                                                                                                    
                                                                                                    
                                                                                                    
                                                                                                    
                                                                                                    
                                                                                                    
                                                                                                    
                                                                                                    
                                                                                                    
                                                                                                    
                                                                                                    
                                                                                                    
                           
<?xpacket end="w"?></metadata>
<defs>
    <style>
      .cls-1 {
        fill: #fff;
        fill-rule: evenodd;
      }
    </style>
  </defs>
  <path id="complete" class="cls-1" d="M800,482a22,22,0,1,1-22,22A22,22,0,0,1,800,482Zm-0.029,3.941a18.032,18.032,0,1,1-18.032,18.032A18.032,18.032,0,0,1,799.968,485.936ZM776.8,518.523l10.135-10.135,6.243,6.243-10.136,10.135Zm19.866-5.057-8.125-8.047a2,2,0,0,1,2.829-2.828l8.08,8.09a2,2,0,0,1,0,2.829A1.947,1.947,0,0,1,796.662,513.466Zm-16.049.543-0.019-.186a2,2,0,1,1,4,0l0.019,0.186A2,2,0,0,1,780.613,514.009Zm5.312,6.062-0.018-.186a2,2,0,0,1,4,0l0.018,0.186A2,2,0,1,1,785.925,520.071Zm25.522-18.733-12.109,12.124a2,2,0,0,1-2.828-2.828l12.153-12.08a2,2,0,0,1,2.828,0A1.947,1.947,0,0,1,811.447,501.338Z" transform="translate(-778 -482)"/>
</svg>
