<svg xmlns="http://www.w3.org/2000/svg" width="42.093" height="44.093" viewBox="0 0 42.093 44.093">
  <metadata><?xpacket begin="﻿" id="W5M0MpCehiHzreSzNTczkc9d"?>
<x:xmpmeta xmlns:x="adobe:ns:meta/" x:xmptk="Adobe XMP Core 5.6-c142 79.160924, 2017/07/13-01:06:39        ">
   <rdf:RDF xmlns:rdf="http://www.w3.org/1999/02/22-rdf-syntax-ns#">
      <rdf:Description rdf:about=""/>
   </rdf:RDF>
</x:xmpmeta>
                                                                                                    
                                                                                                    
                                                                                                    
                                                                                                    
                                                                                                    
                                                                                                    
                                                                                                    
                                                                                                    
                                                                                                    
                                                                                                    
                                                                                                    
                                                                                                    
                                                                                                    
                                                                                                    
                                                                                                    
                                                                                                    
                                                                                                    
                                                                                                    
                                                                                                    
                                                                                                    
                           
<?xpacket end="w"?></metadata>
<defs>
    <style>
      .cls-1 {
        fill: #fff;
        fill-rule: evenodd;
      }
    </style>
  </defs>
  <path id="delete" class="cls-1" d="M885.826,621.019L923.9,621a2,2,0,0,1,0,4l-38.078.018A2,2,0,0,1,885.826,621.019Zm4,36L919.9,657a2,2,0,0,1,0,4l-30.078.018A2,2,0,0,1,889.826,657.019Zm2.155-34.068L892,659.029a2,2,0,0,1-4,0l-0.018-36.078A2,2,0,0,1,891.981,622.951Zm30,6L922,659.029a2,2,0,0,1-4,0l-0.018-30.078A2,2,0,0,1,921.981,628.951ZM888,654.875V657a4,4,0,0,0,4,4h2v1.875h-8v-8h2Zm8,2.077c-3.209,0-4-.6-4-4l0.027,4.1Zm1.989-3.935-0.019-24.077a2,2,0,0,1,4,0l0.019,24.077A2,2,0,0,1,897.988,653.017Zm10,0-0.019-24.077a2,2,0,0,1,4,0l0.019,24.077A2,2,0,0,1,907.988,653.017ZM922,654.875V657a4,4,0,0,1-4,4h-2v1.875h8v-8h-2Zm-8,2.077c3.209,0,4-.6,4-4l-0.027,4.1Zm-12.013-33.935-0.019-4.077a2,2,0,0,1,4,0l0.019,4.077A2,2,0,0,1,901.988,623.017Zm2,0-0.019-4.077a2,2,0,0,1,4,0l0.019,4.077A2,2,0,0,1,903.988,623.017Z" transform="translate(-883.813 -616.938)"/>
</svg>
