<svg xmlns="http://www.w3.org/2000/svg" width="36.25" height="44.093" viewBox="0 0 36.25 44.093">
  <metadata><?xpacket begin="﻿" id="W5M0MpCehiHzreSzNTczkc9d"?>
<x:xmpmeta xmlns:x="adobe:ns:meta/" x:xmptk="Adobe XMP Core 5.6-c142 79.160924, 2017/07/13-01:06:39        ">
   <rdf:RDF xmlns:rdf="http://www.w3.org/1999/02/22-rdf-syntax-ns#">
      <rdf:Description rdf:about=""/>
   </rdf:RDF>
</x:xmpmeta>
                                                                                                    
                                                                                                    
                                                                                                    
                                                                                                    
                                                                                                    
                                                                                                    
                                                                                                    
                                                                                                    
                                                                                                    
                                                                                                    
                                                                                                    
                                                                                                    
                                                                                                    
                                                                                                    
                                                                                                    
                                                                                                    
                                                                                                    
                                                                                                    
                                                                                                    
                                                                                                    
                           
<?xpacket end="w"?></metadata>
<defs>
    <style>
      .cls-1 {
        fill: #fff;
        fill-rule: evenodd;
      }
    </style>
  </defs>
  <path id="drafts" class="cls-1" d="M269.826,482.019L301.9,482a2,2,0,0,1,0,4l-32.078.018A2,2,0,0,1,269.826,482.019Zm0,40L279.9,522a2,2,0,0,1,0,4l-10.078.018A2,2,0,0,1,269.826,522.019Zm2.155-38.068L272,524.029a2,2,0,0,1-4,0l-0.018-40.078A2,2,0,0,1,271.981,483.951Zm32,0L304,510.029a2,2,0,0,1-4,0l-0.018-26.078A2,2,0,0,1,303.981,483.951ZM304,488.125V486a4,4,0,0,0-4-4h-2v-1.875h8v8h-2Zm-36,0V486a4,4,0,0,1,4-4h2v-1.875h-8v8h2Zm0,31.75V522a4,4,0,0,0,4,4h2v1.875h-8v-8h2Zm8,2.077c-3.209,0-4-.6-4-4l0.027,4.1Zm0-35.9c-3.209,0-4,.6-4,4l0.027-4.1Zm20,0c3.209,0,4,.6,4,4l-0.027-4.1Zm4.611,22.444L286.543,522.6a2,2,0,1,0,2.828,2.829l14.069-14.106A2,2,0,0,0,300.612,508.492Zm-10.631,1.459L290,524.029a2,2,0,0,1-4,0l-0.018-14.078A2,2,0,0,1,289.981,509.951Zm12.068,2.03L287.971,512a2,2,0,0,1,0-4l14.078-.018A2,2,0,0,1,302.049,511.981ZM292.125,508H290a4,4,0,0,0-4,4v2h-1.875v-8h8v2Zm-2.139,8c0-3.209.666-4,4.062-4l-4.036.027Zm-14.035-23.98L296.029,492a2,2,0,1,1,0,4l-20.078.019A2,2,0,0,1,275.951,492.019Zm0,8L296.029,500a2,2,0,0,1,0,4l-20.078.018A2,2,0,0,1,275.951,500.019Z" transform="translate(-267.813 -481.938)"/>
</svg>
