<svg xmlns="http://www.w3.org/2000/svg" width="44" height="44" viewBox="0 0 44 44">
  <metadata><?xpacket begin="﻿" id="W5M0MpCehiHzreSzNTczkc9d"?>
<x:xmpmeta xmlns:x="adobe:ns:meta/" x:xmptk="Adobe XMP Core 5.6-c142 79.160924, 2017/07/13-01:06:39        ">
   <rdf:RDF xmlns:rdf="http://www.w3.org/1999/02/22-rdf-syntax-ns#">
      <rdf:Description rdf:about=""/>
   </rdf:RDF>
</x:xmpmeta>
                                                                                                    
                                                                                                    
                                                                                                    
                                                                                                    
                                                                                                    
                                                                                                    
                                                                                                    
                                                                                                    
                                                                                                    
                                                                                                    
                                                                                                    
                                                                                                    
                                                                                                    
                                                                                                    
                                                                                                    
                                                                                                    
                                                                                                    
                                                                                                    
                                                                                                    
                                                                                                    
                           
<?xpacket end="w"?></metadata>
<defs>
    <style>
      .cls-1 {
        fill: #fff;
        fill-rule: evenodd;
      }
    </style>
  </defs>
  <path id="history" class="cls-1" d="M1004,482a22,22,0,1,1-22,22A22,22,0,0,1,1004,482Zm-0.03,3.941a18.032,18.032,0,1,1-18.034,18.032A18.029,18.029,0,0,1,1003.97,485.936ZM980.8,518.523l10.135-10.135,6.243,6.243-10.136,10.135Zm3.817-4.514-0.019-.186a2,2,0,1,1,4,0l0.019,0.186A2,2,0,0,1,984.613,514.009Zm5.312,6.062-0.018-.186a2,2,0,0,1,4,0l0.018,0.186A2,2,0,1,1,989.925,520.071Zm26.125-18.052L1003.97,502a2,2,0,1,0,0,4l12.08,0.018A2,2,0,0,0,1016.05,502.019Zm-14.03-10L1002,504.092a2,2,0,1,0,4,0l0.02-12.078A2,2,0,0,0,1002.02,492.014Z" transform="translate(-982 -482)"/>
</svg>
