<svg xmlns="http://www.w3.org/2000/svg" width="44.093" height="40.094" viewBox="0 0 44.093 40.094">
  <metadata><?xpacket begin="﻿" id="W5M0MpCehiHzreSzNTczkc9d"?>
<x:xmpmeta xmlns:x="adobe:ns:meta/" x:xmptk="Adobe XMP Core 5.6-c142 79.160924, 2017/07/13-01:06:39        ">
   <rdf:RDF xmlns:rdf="http://www.w3.org/1999/02/22-rdf-syntax-ns#">
      <rdf:Description rdf:about=""/>
   </rdf:RDF>
</x:xmpmeta>
                                                                                                    
                                                                                                    
                                                                                                    
                                                                                                    
                                                                                                    
                                                                                                    
                                                                                                    
                                                                                                    
                                                                                                    
                                                                                                    
                                                                                                    
                                                                                                    
                                                                                                    
                                                                                                    
                                                                                                    
                                                                                                    
                                                                                                    
                                                                                                    
                                                                                                    
                                                                                                    
                           
<?xpacket end="w"?></metadata>
<defs>
    <style>
      .cls-1 {
        fill: #fff;
        fill-rule: evenodd;
      }
    </style>
  </defs>
  <path id="write" class="cls-1" d="M678.019,388.049L678,351.971a2,2,0,0,1,4,0l0.018,36.078A2,2,0,0,1,678.019,388.049Zm36,0L714,371.971a2,2,0,0,1,4,0l0.018,16.078A2,2,0,0,1,714.019,388.049Zm-34.068-2.03L716.029,386a2,2,0,1,1,0,4l-36.078.019A2,2,0,0,1,679.951,386.019Zm0-36L712.029,350a2,2,0,0,1,0,4l-32.078.019A2,2,0,0,1,679.951,350.019Zm4.174-.019H682a4,4,0,0,0-4,4v2h-1.875v-8h8v2Zm0,40H682a4,4,0,0,1-4-4v-2h-1.875v8h8v-2Zm27.75,0H714a4,4,0,0,0,4-4v-2h1.875v8h-8v-2Zm2.139-8c0,3.209-.666,4-4.062,4l4.035-.027Zm-32.028,0c0,3.209.665,4,4.062,4l-4.1-.027Zm0.062-24c0-3.21.6-4,4-4l-4.1.026Zm12.712,19.295,22.5-22.6a2.784,2.784,0,0,1,3.937,3.937l-22.5,22.6A2.784,2.784,0,1,1,694.76,377.294Z" transform="translate(-677.938 -349.969)"/>
</svg>
